<svg id="visual" viewBox="0 0 900 300" width="900" height="300" xmlns="http://www.w3.org/2000/svg" xmlns:xlink="http://www.w3.org/1999/xlink" version="1.1"><path d="M0 208L21.5 204.7C43 201.3 86 194.7 128.8 193.2C171.7 191.7 214.3 195.3 257.2 201.2C300 207 343 215 385.8 214C428.7 213 471.3 203 514.2 200.3C557 197.7 600 202.3 642.8 202.3C685.7 202.3 728.3 197.7 771.2 196.7C814 195.7 857 198.3 878.5 199.7L900 201L900 301L878.5 301C857 301 814 301 771.2 301C728.3 301 685.7 301 642.8 301C600 301 557 301 514.2 301C471.3 301 428.7 301 385.8 301C343 301 300 301 257.2 301C214.3 301 171.7 301 128.8 301C86 301 43 301 21.5 301L0 301Z" fill="#2c2f33"></path><path d="M0 204L21.5 203.5C43 203 86 202 128.8 204.7C171.7 207.3 214.3 213.7 257.2 218.2C300 222.7 343 225.3 385.8 228.2C428.7 231 471.3 234 514.2 234.5C557 235 600 233 642.8 230.3C685.7 227.7 728.3 224.3 771.2 224.5C814 224.7 857 228.3 878.5 230.2L900 232L900 301L878.5 301C857 301 814 301 771.2 301C728.3 301 685.7 301 642.8 301C600 301 557 301 514.2 301C471.3 301 428.7 301 385.8 301C343 301 300 301 257.2 301C214.3 301 171.7 301 128.8 301C86 301 43 301 21.5 301L0 301Z" fill="#222529"></path><path d="M0 227L21.5 225.7C43 224.3 86 221.7 128.8 224.8C171.7 228 214.3 237 257.2 238.2C300 239.3 343 232.7 385.8 231.8C428.7 231 471.3 236 514.2 235.2C557 234.3 600 227.7 642.8 225.8C685.7 224 728.3 227 771.2 231C814 235 857 240 878.5 242.5L900 245L900 301L878.5 301C857 301 814 301 771.2 301C728.3 301 685.7 301 642.8 301C600 301 557 301 514.2 301C471.3 301 428.7 301 385.8 301C343 301 300 301 257.2 301C214.3 301 171.7 301 128.8 301C86 301 43 301 21.5 301L0 301Z" fill="#181b1f"></path><path d="M0 267L21.5 262.7C43 258.3 86 249.7 128.8 247.7C171.7 245.7 214.3 250.3 257.2 252.5C300 254.7 343 254.3 385.8 257C428.7 259.7 471.3 265.3 514.2 267.2C557 269 600 267 642.8 263.7C685.7 260.3 728.3 255.7 771.2 253C814 250.3 857 249.7 878.5 249.3L900 249L900 301L878.5 301C857 301 814 301 771.2 301C728.3 301 685.7 301 642.8 301C600 301 557 301 514.2 301C471.3 301 428.7 301 385.8 301C343 301 300 301 257.2 301C214.3 301 171.7 301 128.8 301C86 301 43 301 21.5 301L0 301Z" fill="#0d1115"></path><path d="M0 271L21.5 272.2C43 273.3 86 275.7 128.8 276.7C171.7 277.7 214.3 277.3 257.2 277.8C300 278.3 343 279.7 385.8 280.3C428.7 281 471.3 281 514.2 279.7C557 278.3 600 275.7 642.8 276.3C685.7 277 728.3 281 771.2 280.7C814 280.3 857 275.7 878.5 273.3L900 271L900 301L878.5 301C857 301 814 301 771.2 301C728.3 301 685.7 301 642.8 301C600 301 557 301 514.2 301C471.3 301 428.7 301 385.8 301C343 301 300 301 257.2 301C214.3 301 171.7 301 128.8 301C86 301 43 301 21.5 301L0 301Z" fill="#000000"></path></svg>